#!OML:ASF I:\Actors\actors\Patient Classification 2\Patient 1\Session 1\actor1.ASF
:FULLY-SPECIFIED
:DEGREES
358
root -1.0813 14.1331 6.58571 17.871 6.87777 3.61467
lowerback 41.2992 0.909756 -1.30587
upperback 9.5518 0.798418 0.859144
thorax -9.14184 0.404417 1.25573
lowerneck -6.18065 -3.00458 -3.58206
upperneck 32.8857 -4.27022 2.82742
head 11.9188 -1.92349 1.21012
rclavicle 2.22639e-014 -2.66371e-014
rhumerus -3.91451 -0.151398 -75.3432
rradius 54.0587
rwrist 4.72537
rhand -5.15091 -39.4918
rfingers 7.12502
rthumb 20.6484 -68.4135
lclavicle 2.22639e-014 -2.66371e-014
lhumerus -4.18158 -9.25108 79.4256
lradius 50.185
lwrist 16.4779
lhand -17.6752 -28.8515
lfingers 7.12502
lthumb 8.58377 0.954038
rfemur -66.07 -16.1462 11.67
rtibia 99.1492
rfoot -34.9312 6.62989
rtoes -23.625
lfemur -72.8617 5.75919 -19.0572
ltibia 95.8051
lfoot -29.9705 -11.9384
ltoes -53.5295
359
root -1.0434 14.2157 6.57665 18.5306 6.33706 3.5826
lowerback 42.6534 0.781914 -1.02703
upperback 9.14008 0.712737 0.685357
thorax -10.0065 0.367404 0.952475
lowerneck -5.77323 -2.93156 -3.46851
upperneck 33.0667 -4.22518 2.89893
head 11.9056 -1.88644 1.22918
rclavicle -5.56597e-015 -6.75868e-015
rhumerus -4.61278 1.58883 -75.4431
rradius 53.9276
rwrist 6.63688
rhand -5.8972 -38.8
rfingers 7.12502
rthumb 19.9312 -67.7979
lclavicle -5.56597e-015 -6.75868e-015
lhumerus -4.71304 -10.8501 79.1707
lradius 50.2445
lwrist 16.6015
lhand -17.4451 -29.146
lfingers 7.12502
lthumb 8.8058 0.650258
rfemur -66.517 -15.4964 11.8157
rtibia 98.0997
rfoot -35.0409 5.94964
rtoes -22.8131
lfemur -72.9995 5.37377 -19.1545
ltibia 94.965
lfoot -30.1567 -11.1089
ltoes -53.4767
360
root -1.00565 14.3371 6.56922 19.2449 5.8282 3.51732
lowerback 44.0244 0.670876 -0.812233
upperback 8.67625 0.635841 0.576445
thorax -10.9286 0.331588 0.75028
lowerneck -5.46722 -2.78711 -3.5814
upperneck 33.5751 -4.10958 3.181
head 12.0565 -1.81926 1.37686
rclavicle 1.59028e-015 -3.18055e-015
rhumerus -5.47524 3.08184 -75.6537
rradius 53.8838
rwrist 8.10035
rhand -6.82832 -38.3127
rfingers 7.12502
rthumb 19.0359 -67.4012
lclavicle 1.59028e-015 -3.18055e-015
lhumerus -5.41017 -12.3844 79.1322
lradius 50.3375
lwrist 16.6008
lhand -17.2003 -29.3405
lfingers 7.12502
lthumb 9.04206 0.445674
rfemur -66.7454 -14.8334 11.9017
rtibia 96.6138
rfoot -34.8973 5.52572
rtoes -21.7971
lfemur -72.9801 5.07078 -19.2554
ltibia 93.7319
lfoot -30.2018 -10.2336
ltoes -53.5132
361
root -0.968615 14.4922 6.56585 20.0171 5.37752 3.42633
lowerback 45.3462 0.554265 -0.60985
upperback 8.19664 0.560577 0.511838
thorax -11.8482 0.294226 0.604202
lowerneck -5.55636 -2.45968 -4.22648
upperneck 34.7434 -3.90075 4.24899
head 12.5964 -1.68369 1.93891
rclavicle 8.74653e-015 -2.18663e-014
rhumerus -6.39963 4.21297 -76.024
rradius 53.7725
rwrist 9.22602
rhand -8.02391 -38.0028
rfingers 7.12502
rthumb 17.8858 -67.2003
lclavicle 8.74653e-015 -2.18663e-014
lhumerus -6.29661 -13.8001 79.2635
lradius 50.5516
lwrist 16.5298
lhand -16.6909 -29.5378
lfingers 7.12502
lthumb 9.53363 0.226523
rfemur -66.7659 -14.1518 11.9256
rtibia 94.7099
rfoot -34.5912 5.18
rtoes -20.9822
lfemur -72.79 4.79734 -19.3247
ltibia 92.1147
lfoot -30.09 -9.45447
ltoes -53.4177
362
root -0.933429 14.674 6.56694 20.865 4.94259 3.25322
lowerback 46.5334 0.476743 -0.432186
upperback 7.71025 0.534539 0.495968
thorax -12.7352 0.27619 0.503717
lowerneck -5.13119 -2.41389 -4.14
upperneck 35.1015 -3.85156 4.17176
head 12.6541 -1.66527 1.90932
rclavicle -5.56597e-015 -1.39149e-014
rhumerus -7.34238 4.67394 -76.631
rradius 53.5683
rwrist 10.2261
rhand -9.01246 -37.5202
rfingers 7.12502
rthumb 16.9344 -66.8019
lclavicle -5.56597e-015 -1.39149e-014
lhumerus -7.341 -15.0951 79.543
lradius 50.7905
lwrist 16.4733
lhand -15.9589 -29.7585
lfingers 7.12502
lthumb 10.2398 -0.0277162
rfemur -66.6496 -13.4254 12.007
rtibia 92.4428
rfoot -34.183 4.73828
rtoes -20.9778
lfemur -72.4734 4.59486 -19.2953
ltibia 90.1612
lfoot -29.9667 -8.85994
ltoes -53.3753
363
root -0.900918 14.8872 6.56961 21.6281 4.57075 3.05602
lowerback 47.8381 0.416753 -0.274164
upperback 7.20905 0.53111 0.507707
thorax -13.6672 0.266677 0.433737
lowerneck -4.70649 -2.41568 -3.86333
upperneck 35.4506 -3.86019 3.96363
head 12.7047 -1.66245 1.78752
rclavicle -1.31198e-014 8.74653e-015
rhumerus -8.60254 4.70172 -77.3222
rradius 53.7773
rwrist 10.4496
rhand -9.82458 -37.3211
rfingers 7.12502
rthumb 16.1526 -66.6681
lclavicle -1.31198e-014 8.74653e-015
lhumerus -8.49242 -16.4709 79.8819
lradius 50.9921
lwrist 16.4524
lhand -15.3203 -29.7962
lfingers 7.12502
lthumb 10.8559 -0.0967914
rfemur -66.1457 -12.6156 12.0378
rtibia 89.8167
rfoot -33.7645 4.35147
rtoes -20.9535
lfemur -71.8191 4.38683 -19.2029
ltibia 87.8609
lfoot -29.8254 -8.45134
ltoes -53.3482
364
root -0.868642 15.1156 6.57717 22.5098 4.18112 2.90515
lowerback 49.7408 0.410908 -0.216312
upperback 5.69152 0.546392 0.520484
thorax -14.3082 0.264705 0.413885
lowerneck -4.25387 -2.46401 -3.60755
upperneck 35.7073 -3.93116 3.77093
head 12.7142 -1.68755 1.6668
rclavicle 0 -2.78299e-015
rhumerus -10.238 4.8127 -77.8624
rradius 54.4862
rwrist 9.47053
rhand -10.4471 -37.5841
rfingers 7.12502
rthumb 15.5531 -66.9786
lclavicle 0 -2.78299e-015
lhumerus -9.70439 -17.8566 80.3184
lradius 51.1529
lwrist 16.3917
lhand -14.7634 -29.5684
lfingers 7.12502
lthumb 11.3929 0.102138
rfemur -65.6205 -11.8478 11.9891
rtibia 86.933
rfoot -33.2588 4.17039
rtoes -20.0601
lfemur -71.1491 4.14447 -19.152
ltibia 85.3284
lfoot -29.5072 -7.98964
ltoes -53.1745
365
root -0.836268 15.3528 6.58941 23.4087 3.78468 2.7705
lowerback 50.5406 0.446516 -0.243595
upperback 5.23396 0.576184 0.563674
thorax -14.9738 0.274538 0.459805
lowerneck -3.75733 -2.53297 -3.32135
upperneck 35.8543 -4.00257 3.48799
head 12.664 -1.71933 1.50476
rclavicle 9.14409e-015 4.37326e-015
rhumerus -12.0535 5.07193 -78.2535
rradius 55.3157
rwrist 7.79535
rhand -10.9403 -37.6651
rfingers 7.12502
rthumb 15.078 -67.0959
lclavicle 9.14409e-015 4.37326e-015
lhumerus -10.9294 -19.1467 80.8412
lradius 51.2755
lwrist 16.4051
lhand -14.0266 -28.9809
lfingers 7.12502
lthumb 12.1034 0.649028
rfemur -65.0037 -11.1586 11.9239
rtibia 83.8351
rfoot -32.6365 3.97463
rtoes -19.1409
lfemur -70.4077 3.87261 -19.1092
ltibia 82.6314
lfoot -29.0842 -7.40731
ltoes -53.0645
366
root -0.806416 15.5988 6.60162 24.2283 3.43753 2.58435
lowerback 51.3646 0.485994 -0.250394
upperback 4.7719 0.628108 0.638365
thorax -15.6485 0.292656 0.521036
lowerneck -3.34885 -2.58721 -3.06274
upperneck 36.0157 -4.05312 3.22822
head 12.6386 -1.74161 1.35866
rclavicle 2.78299e-015 2.38542e-015
rhumerus -13.932 5.40605 -78.5881
rradius 56.1274
rwrist 5.66454
rhand -11.3374 -37.969
rfingers 7.12502
rthumb 14.6955 -67.4281
lclavicle 2.78299e-015 2.38542e-015
lhumerus -12.2309 -20.4704 81.3461
lradius 51.4546
lwrist 16.5034
lhand -13.0616 -27.9432
lfingers 7.12502
lthumb 13.0339 1.62956
rfemur -64.1427 -10.2896 11.8457
rtibia 80.543
rfoot -32.0495 3.53049
rtoes -18.717
lfemur -69.5221 3.59575 -18.9738
ltibia 79.8052
lfoot -28.6035 -6.77661
ltoes -53.0803
